<svg width="152" height="152" viewBox="0 0 152 152" fill="none" xmlns="http://www.w3.org/2000/svg">
<path d="M152 76C152 118.156 117.859 152 76 152C33.8438 152 0 118.156 0 76C0 34.1406 33.8438 0 76 0C117.859 0 152 34.1406 152 76ZM29.3906 43.0469C22.8594 52.5469 19 63.8281 19 76C19 107.469 44.2344 133 76 133C88.1719 133 99.4531 129.141 108.953 122.609L29.3906 43.0469ZM133 76C133 44.5312 107.469 19 76 19C63.5312 19 52.25 23.1562 42.75 29.6875L122.312 109.25C128.844 99.75 133 88.4688 133 76Z" fill="#F55454"/>
</svg>
