<svg width="19" height="19" viewBox="0 0 19 19" fill="none" xmlns="http://www.w3.org/2000/svg">
<path d="M9.50909 0.25C14.4661 0.25 18.5091 4.29297 18.5091 9.25C18.5091 14.2422 14.4661 18.25 9.50909 18.25C4.51691 18.25 0.509094 14.2422 0.509094 9.25C0.509094 4.29297 4.51691 0.25 9.50909 0.25ZM9.50909 4.75C8.87628 4.75 8.38409 5.27734 8.38409 5.875C8.38409 6.50781 8.87628 7 9.50909 7C10.1068 7 10.6341 6.50781 10.6341 5.875C10.6341 5.27734 10.1068 4.75 9.50909 4.75ZM10.9153 13.75C11.3724 13.75 11.7591 13.3984 11.7591 12.9062C11.7591 12.4492 11.3724 12.0625 10.9153 12.0625H10.3528V8.96875C10.3528 8.51172 9.96613 8.125 9.50909 8.125H8.38409C7.89191 8.125 7.54034 8.51172 7.54034 8.96875C7.54034 9.46094 7.89191 9.8125 8.38409 9.8125H8.66534V12.0625H8.10284C7.61066 12.0625 7.25909 12.4492 7.25909 12.9062C7.25909 13.3984 7.61066 13.75 8.10284 13.75H10.9153Z" fill="#808080"/>
</svg>
